#!OML:ASF G:\JayActor3\Patient Classification 1\Patient 1\Session 6\male.ASF
:FULLY-SPECIFIED
:DEGREES
1203
root -33.5837 16.2728 -0.986992 546.717 -18.7142 -548.196
lowerback 14.3567 -1.76466 -0.681144
upperback 1.30956 -2.6805 -0.914489
thorax -6.67524 -1.37182 -0.0434325
lowerneck 1.61767 7.78428 10.0781
upperneck -6.55209 10.2056 -9.30826
head -1.18675 5.04552 -4.47248
rclavicle 9.93923e-015 1.19271e-014
rhumerus -40.3419 1.63893 -81.2353
rradius 40.3105
rwrist 0.682209
rhand -24.2896 -8.85308
rfingers 7.12502
rthumb 2.19765 -38.8215
lclavicle 9.93923e-015 1.19271e-014
lhumerus -26.0632 -8.45514 85.6728
lradius 31.4034
lwrist 27.3504
lhand -19.1839 5.24676
lfingers 7.12502
lthumb 7.12764 35.1067
rfemur -38.4959 -4.33191 14.6432
rtibia 48.028
rfoot -14.807 -16.646
rtoes 0.304232
lfemur 5.27734 12.623 -19.0566
ltibia 32.0454
lfoot -10.0087 -5.72132
ltoes -17.8097
1204
root -33.5933 16.2793 -1.12224 546.562 -19.0412 -547.841
lowerback 14.3627 -1.74854 -0.0754295
upperback 1.3888 -2.53411 -0.53563
thorax -6.60175 -1.31199 -0.0149436
lowerneck 1.66947 7.71015 10.1979
upperneck -6.40856 10.1085 -9.68511
head -1.13385 5.00801 -4.60261
rclavicle 1.72943e-014 1.59028e-015
rhumerus -40.1167 1.57668 -81.0404
rradius 40.5567
rwrist 0.481104
rhand -24.3327 -8.86102
rfingers 7.12502
rthumb 2.156 -38.8299
lclavicle 1.72943e-014 1.59028e-015
lhumerus -26.5481 -7.53359 85.9521
lradius 29.8097
lwrist 26.1155
lhand -18.7274 5.00518
lfingers 7.12502
lthumb 7.5683 34.8498
rfemur -37.9488 -4.40507 15.1229
rtibia 48.2168
rfoot -15.2065 -16.8117
rtoes 0.463165
lfemur 3.23157 12.5568 -18.236
ltibia 36.361
lfoot -9.22665 -5.8629
ltoes -17.7917
1205
root -33.6028 16.2767 -1.25436 546.352 -19.3897 -547.433
lowerback 14.4159 -1.7226 0.58041
upperback 1.48045 -2.37174 -0.134475
thorax -6.5413 -1.24718 0.00702925
lowerneck 1.76229 7.60469 10.312
upperneck -6.30916 9.96921 -10.0878
head -1.10413 4.95012 -4.74405
rclavicle -4.35338e-014 -2.54444e-014
rhumerus -39.8859 1.53788 -80.8205
rradius 40.819
rwrist 0.29689
rhand -24.3922 -8.87344
rfingers 7.12502
rthumb 2.09856 -38.8429
lclavicle -4.35338e-014 -2.54444e-014
lhumerus -27.1284 -6.71254 86.1963
lradius 28.6328
lwrist 25.0701
lhand -18.3025 4.80613
lfingers 7.12502
lthumb 7.97839 34.6355
rfemur -37.4126 -4.50667 15.6599
rtibia 48.4584
rfoot -15.6788 -16.9756
rtoes 0.461584
lfemur 1.2053 12.6063 -17.3894
ltibia 40.6975
lfoot -8.746 -5.72542
ltoes -20.1092
1206
root -33.613 16.2666 -1.38314 546.085 -19.7284 -546.99
lowerback 14.521 -1.67782 1.27573
upperback 1.58573 -2.18374 0.277336
thorax -6.49449 -1.17292 0.0144064
lowerneck 1.92531 7.47348 10.421
upperneck -6.28114 9.79614 -10.5075
head -1.11032 4.87656 -4.89628
rclavicle 6.55989e-015 1.59028e-014
rhumerus -39.6442 1.50237 -80.5743
rradius 41.0849
rwrist 0.156977
rhand -24.4658 -8.88295
rfingers 7.12502
rthumb 2.02748 -38.8531
lclavicle 6.55989e-015 1.59028e-014
lhumerus -27.8153 -6.08719 86.4368
lradius 27.8891
lwrist 24.3666
lhand -17.9441 4.68045
lfingers 7.12502
lthumb 8.32427 34.4964
rfemur -36.8832 -4.61057 16.2281
rtibia 48.7513
rfoot -16.2021 -17.1346
rtoes 0.332933
lfemur -0.795002 12.733 -16.5536
ltibia 45.015
lfoot -8.60779 -5.4296
ltoes -23.9946
1207
root -33.6245 16.25 -1.50799 545.761 -20.0409 -546.523
lowerback 14.6851 -1.61434 1.99993
upperback 1.70547 -1.9715 0.693554
thorax -6.46332 -1.09 0.00697076
lowerneck 2.18185 7.32522 10.5351
upperneck -6.34274 9.60157 -10.9478
head -1.1599 4.79427 -5.06315
rclavicle -1.78906e-014 4.77083e-015
rhumerus -39.3885 1.48514 -80.3116
rradius 41.3514
rwrist 0.0602065
rhand -24.5599 -8.90735
rfingers 7.12502
rthumb 1.93666 -38.8783
lclavicle -1.78906e-014 4.77083e-015
lhumerus -28.5979 -5.66642 86.6901
lradius 27.5455
lwrist 24.0258
lhand -17.673 4.63115
lfingers 7.12502
lthumb 8.58594 34.4366
rfemur -36.3501 -4.70692 16.8133
rtibia 49.0812
rfoot -16.7486 -17.2881
rtoes 0.137702
lfemur -2.75375 12.934 -15.7413
ltibia 49.2686
lfoot -8.84978 -5.00717
ltoes -28.9456
1208
root -33.6376 16.2303 -1.62905 545.383 -20.3131 -546.045
lowerback 14.8983 -1.53556 2.74646
upperback 1.84544 -1.74066 1.10313
thorax -6.43557 -1.00123 -0.0227104
lowerneck 2.55827 7.16574 10.6565
upperneck -6.51907 9.39395 -11.3967
head -1.26448 4.70836 -5.24305
rclavicle 1.19271e-014 4.77083e-015
rhumerus -39.104 1.48433 -80.0482
rradius 41.6118
rwrist 0.00972847
rhand -24.6766 -8.9519
rfingers 7.12502
rthumb 1.82392 -38.9239
lclavicle 1.19271e-014 4.77083e-015
lhumerus -29.4633 -5.47617 86.9657
lradius 27.5777
lwrist 24.088
lhand -17.4979 4.67589
lfingers 7.12502
lthumb 8.75491 34.4743
rfemur -35.7838 -4.80546 17.4033
rtibia 49.4007
rfoot -17.2733 -17.4379
rtoes -0.164004
lfemur -4.68316 13.1141 -14.9824
ltibia 53.4238
lfoot -9.34472 -4.55715
ltoes -33.4139
1209
root -33.6532 16.2118 -1.74735 544.941 -20.5344 -545.569
lowerback 15.1578 -1.44273 3.50686
upperback 2.01774 -1.49503 1.49683
thorax -6.39573 -0.908366 -0.0793565
lowerneck 3.05349 6.99684 10.7732
upperneck -6.81174 9.17544 -11.8263
head -1.42647 4.6202 -5.42547
rclavicle -2.38542e-014 4.77083e-015
rhumerus -38.7661 1.47319 -79.7851
rradius 41.8405
rwrist 0.0172047
rhand -24.8074 -8.99323
rfingers 7.12502
rthumb 1.69755 -38.9662
lclavicle -2.38542e-014 4.77083e-015
lhumerus -30.3508 -5.36095 87.2182
lradius 27.8764
lwrist 24.379
lhand -17.4288 4.76993
lfingers 7.12502
lthumb 8.8216 34.5656
rfemur -35.1338 -4.89815 17.9788
rtibia 49.6695
rfoot -17.7678 -17.5899
rtoes -0.565812
lfemur -6.58007 13.1837 -14.2953
ltibia 57.4427
lfoot -9.90403 -4.2936
ltoes -36.2598
1210
root -33.6712 16.1959 -1.8639 544.433 -20.6981 -545.102
lowerback 15.4609 -1.33716 4.26523
upperback 2.22462 -1.23857 1.87517
thorax -6.33854 -0.812624 -0.152954
lowerneck 3.64411 6.82148 10.8538
upperneck -7.18827 8.94988 -12.1991
head -1.6357 4.53158 -5.5919
rclavicle -2.94201e-014 2.22639e-014
rhumerus -38.3453 1.37668 -79.5009
rradius 41.9955
rwrist 0.150004
rhand -24.9389 -9.01639
rfingers 7.12502
rthumb 1.57061 -38.9904
lclavicle -2.94201e-014 2.22639e-014
lhumerus -31.2538 -5.34816 87.4605
lradius 28.4002
lwrist 24.8704
lhand -17.4508 4.9103
lfingers 7.12502
lthumb 8.8003 34.7068
rfemur -34.3751 -4.99279 18.5337
rtibia 49.8626
rfoot -18.2324 -17.7267
rtoes -1.01052
lfemur -8.44381 13.1751 -13.6509
ltibia 61.2972
lfoot -10.4217 -4.48014
ltoes -37.2831
1211
root -33.6903 16.1825 -1.97929 543.871 -20.8251 -544.662
lowerback 15.7941 -1.22541 4.99597
upperback 2.46749 -0.984552 2.233
thorax -6.25444 -0.719211 -0.232282
lowerneck 4.28711 6.64112 10.8873
upperneck -7.61243 8.7182 -12.492
head -1.87606 4.44152 -5.73026
rclavicle 1.59028e-014 -9.54166e-015
rhumerus -37.8389 1.1919 -79.2066
rradius 42.0784
rwrist 0.384552
rhand -25.0452 -9.01505
rfingers 7.12502
rthumb 1.46793 -38.9897
lclavicle 1.59028e-014 -9.54166e-015
lhumerus -32.1274 -5.35562 87.6581
lradius 29.0563
lwrist 25.4257
lhand -17.613 5.07501
lfingers 7.12502
lthumb 8.6438 34.8781
rfemur -33.5123 -5.0846 19.0481
rtibia 49.9932
rfoot -18.71 -17.8444
rtoes -1.35489
lfemur -10.2693 13.0894 -13.0526
ltibia 64.95
lfoot -10.8098 -5.17679
ltoes -36.7041
1212
root -33.7091 16.1713 -2.09453 543.271 -20.9279 -544.263
lowerback 16.1559 -1.10442 5.66609
upperback 2.73179 -0.731974 2.57917
thorax -6.15747 -0.62638 -0.289427
lowerneck 4.92041 6.45396 10.8674
upperneck -8.00754 8.47715 -12.7097
head -2.11503 4.34709 -5.83543
rclavicle -1.74931e-014 -2.8625e-014
rhumerus -37.2623 0.889514 -78.8739
rradius 42.0783
rwrist 0.762275
rhand -25.1025 -8.96845
rfingers 7.12502
rthumb 1.41256 -38.9435
lclavicle -1.74931e-014 -2.8625e-014
lhumerus -32.9614 -5.34699 87.8165
lradius 29.7737
lwrist 25.9582
lhand -17.8251 5.24496
lfingers 7.12502
lthumb 8.43916 35.0563
rfemur -32.5658 -5.17374 19.5108
rtibia 50.0876
rfoot -19.2462 -17.9231
rtoes -1.47203
lfemur -12.0711 12.969 -12.4944
ltibia 68.3752
lfoot -10.9658 -6.41496
ltoes -34.6093
